<?xml version="1.0" encoding="UTF-8"?>
<svg width="15px" height="14px" viewBox="0 0 15 14" version="1.1" xmlns="http://www.w3.org/2000/svg" xmlns:xlink="http://www.w3.org/1999/xlink">
    <!-- Generator: Sketch 51.3 (57544) - http://www.bohemiancoding.com/sketch -->
    <title>arrow-green</title>
    <desc>Created with Sketch.</desc>
    <defs></defs>
    <g id="Dashboard-" stroke="none" stroke-width="1" fill="none" fill-rule="evenodd">
        <g id="Front-End-Task-#3" transform="translate(-867.000000, -581.000000)" fill="#4CA368" fill-rule="nonzero">
            <g id="item-copy" transform="translate(866.000000, 532.000000)">
                <g id="arrow-green" transform="translate(1.466019, 49.000000)">
                    <path d="M14.0649515,0 L12.7105159,0 C12.5147397,0 12.3587301,0.159138889 12.3681003,0.349277778 L12.4814009,2.64813889 C11.1819586,1.16386111 9.24665075,0.222222222 7.08488464,0.222222222 C3.18075864,0.222222222 -0.00288340425,3.32016667 1.9597269e-06,7.11630556 C0.0028873237,10.9185556 3.17378806,14 7.08485607,14 C8.91109149,14 10.5759179,13.3281389 11.8322225,12.2247778 C11.9782905,12.0965 11.9851754,11.8758611 11.8459923,11.7405278 L10.8755101,10.7968889 C10.7479256,10.6728333 10.5429791,10.6658611 10.4075669,10.7818056 C9.52193161,11.5402222 8.3591585,12 7.08485607,12 C4.30613629,12 2.05689509,9.81344444 2.05689509,7.11111111 C2.05689509,4.40925 4.30565064,2.22222222 7.08485607,2.22222222 C8.8244163,2.22222222 10.3560589,3.07938889 11.2586065,4.38333333 L8.35824432,4.24819444 C8.16269664,4.23908333 7.99903079,4.39077778 7.99903079,4.58113889 L7.99903079,5.89811111 C7.99903079,6.08219444 8.15252644,6.23144444 8.34184631,6.23144444 L14.0649515,6.23144444 C14.2542713,6.23144444 14.407767,6.08219444 14.407767,5.89811111 L14.407767,0.333333333 C14.407767,0.14925 14.2542713,0 14.0649515,0 Z" id="Shape"></path>
                </g>
            </g>
        </g>
    </g>
</svg>